<svg xmlns="http://www.w3.org/2000/svg" width="242.67" height="242.67" viewBox="0 0 242.67 242.67">
    <g  transform="translate(-57.67 -57.67)">
        <path fill="#9da188" d="M206.76,182.65c-0.84-1.27.24-2.44,0.24-3.65s-1.08-2.38-.24-3.65c3-4.55,44.68-14.49,44.36-15.67s-45,11.61-46.25,8.61,39.4-25.56,38.79-26.62S206.56,163.05,201.21,162c-1.49-.31-1.55-1.89-2.41-2.75s-2.45-.92-2.75-2.41c-1.1-5.34,21.34-41.84,20.29-42.45s-23.62,40-26.62,38.79,9.79-45.94,8.61-46.25-11.12,41.36-15.67,44.36c-1.27.84-2.44-.24-3.65-0.24s-2.38,1.08-3.65.24c-4.55-3-14.49-44.68-15.67-44.36s11.61,45,8.61,46.25-25.56-39.4-26.62-38.79,21.38,37.11,20.29,42.45c-0.31,1.49-1.89,1.55-2.75,2.41s-0.92,2.45-2.41,2.75c-5.34,1.1-41.84-21.34-42.45-20.29s40,23.62,38.79,26.62-45.94-9.79-46.25-8.61,41.36,11.12,44.36,15.67c0.84,1.27-.24,2.44-0.24,3.65s1.08,2.38.24,3.65c-3,4.55-44.68,14.49-44.36,15.67s45-11.61,46.25-8.61-39.4,25.56-38.79,26.62,37.11-21.38,42.45-20.29c1.49,0.31,1.55,1.89,2.41,2.75s2.45,0.92,2.75,2.41c1.1,5.34-21.34,41.84-20.29,42.45s23.62-40,26.62-38.79-9.79,45.94-8.61,46.25,11.12-41.36,15.67-44.36c1.27-.84,2.44.24,3.65,0.24s2.38-1.08,3.65-.24c4.55,3,14.49,44.68,15.67,44.36s-11.61-45-8.61-46.25,25.56,39.4,26.62,38.79S194.95,206.56,196,201.21c0.31-1.49,1.89-1.55,2.75-2.41s0.92-2.45,2.41-2.75c5.34-1.1,41.84,21.34,42.45,20.29s-40-23.62-38.79-26.62,45.94,9.79,46.25,8.61S209.76,187.21,206.76,182.65ZM179,204.2A25.2,25.2,0,1,1,204.2,179,25.2,25.2,0,0,1,179,204.2Z" />
        <path fill="#9da188" d="M203.25,193c-0.22-1.42,1.15-2.16,1.62-3.28a28,28,0,0,0,0-21.43c-0.47-1.13-1.84-1.86-1.62-3.28,0.56-3.63,10.47-10.16,16.48-17.25,8.49-10,30.15-36.47,28.57-38s-28,20.08-38,28.57c-7.09,6-13.62,15.92-17.25,16.48-1.42.22-2.16-1.15-3.28-1.62a28,28,0,0,0-21.43,0c-1.13.47-1.86,1.84-3.28,1.62-3.63-.56-10.16-10.47-17.25-16.48-10-8.49-36.47-30.15-38-28.57s20.08,28,28.57,38c6,7.09,15.92,13.62,16.48,17.25,0.22,1.42-1.15,2.16-1.62,3.28a28,28,0,0,0,0,21.43c0.47,1.13,1.84,1.86,1.62,3.28-0.56,3.63-10.47,10.16-16.48,17.25-8.49,10-30.15,36.47-28.57,38s28-20.08,38-28.57c7.09-6,13.62-15.92,17.25-16.48,1.42-.22,2.16,1.15,3.28,1.62a28,28,0,0,0,21.43,0c1.13-.47,1.86-1.84,3.28-1.62,3.63,0.56,10.16,10.47,17.25,16.48,10,8.49,36.47,30.15,38,28.57s-20.08-28-28.57-38C213.71,203.16,203.8,196.63,203.25,193ZM179,204.2A25.2,25.2,0,1,1,204.2,179,25.2,25.2,0,0,1,179,204.2Z" />
        <path fill="#9da188" d="M229.89,172.3c-10-.59-20.89,1.62-23.85-0.55-1.16-.85-0.71-2.34-1.18-3.47a28,28,0,0,0-15.15-15.15c-1.13-.47-2.62,0-3.47-1.18-2.17-3,0-13.81-.55-23.85-1-17.29-4.47-70.44-6.7-70.44s-5.68,53.15-6.7,70.44c-0.59,10,1.62,20.89-.55,23.85-0.85,1.16-2.34.71-3.47,1.18a28,28,0,0,0-15.15,15.15c-0.47,1.13,0,2.62-1.18,3.47-3,2.17-13.81,0-23.85.55-17.29,1-70.44,4.47-70.44,6.7s53.15,5.68,70.44,6.7c10,0.59,20.89-1.62,23.85.55,1.16,0.85.71,2.34,1.18,3.47a28,28,0,0,0,15.15,15.15c1.13,0.47,2.62,0,3.47,1.18,2.17,3,0,13.81.55,23.85,1,17.29,4.47,70.44,6.7,70.44s5.68-53.15,6.7-70.44c0.59-10-1.62-20.89.55-23.85,0.85-1.16,2.34-.71,3.47-1.18a28,28,0,0,0,15.15-15.15c0.47-1.13,0-2.62,1.18-3.47,3-2.17,13.81,0,23.85-.55,17.29-1,70.44-4.47,70.44-6.7S247.18,173.32,229.89,172.3ZM179,204.2A25.2,25.2,0,1,1,204.2,179,25.2,25.2,0,0,1,179,204.2Z" />
    </g>
</svg>