<svg xmlns="http://www.w3.org/2000/svg" class="compass" width="224.58" height="229.19" viewBox="0 0 224.58 229.19">
    <g>
        <circle cx="109.28" cy="117.8" r="95" />
        <text transform="translate(109.28 10.8)">N</text>
        <text transform="translate(185.28 41.8) rotate(45)">NE</text>
        <text transform="translate(216.08 117.8)">E</text>
        <text transform="translate(185.28 193.8) rotate(-45)">SE</text>
        <text transform="translate(109.28 224.8)">S</text>
        <text transform="translate(33.28 193.8) rotate(45)">SW</text>
        <text transform="translate(2.28 117.8)">W</text>
        <text transform="translate(33.28 41.8) rotate(-45)">NW</text>
        <line x1="138.53" y1="8.65" x2="134.13" y2="25.07" />
        <line x1="165.78" y1="19.94" x2="157.28" y2="34.66" />
        <line x1="207.14" y1="61.3" x2="192.42" y2="69.8" />
        <line x1="218.43" y1="88.55" x2="202.01" y2="92.95" />
        <line x1="218.43" y1="147.04" x2="202.01" y2="142.64" />
        <line x1="207.14" y1="174.3" x2="192.42" y2="165.8" />
        <line x1="165.78" y1="215.66" x2="157.28" y2="200.94" />
        <line x1="138.53" y1="226.95" x2="134.13" y2="210.53" />
        <line x1="80.03" y1="226.95" x2="84.43" y2="210.53" />
        <line x1="52.78" y1="215.66" x2="61.28" y2="200.94" />
        <line x1="11.42" y1="174.3" x2="26.14" y2="165.8" />
        <line x1="0.13" y1="147.04" x2="16.55" y2="142.64" />
        <line x1="0.13" y1="88.55" x2="16.55" y2="92.95" />
        <line x1="11.42" y1="61.3" x2="26.14" y2="69.8" />
        <line x1="52.78" y1="19.94" x2="61.28" y2="34.66" />
        <line x1="80.03" y1="8.65" x2="84.43" y2="25.07" />
    </g>
</svg>
