<svg xmlns="http://www.w3.org/2000/svg" width="59.85" height="59.87" viewBox="0 0 59.85 59.87" stroke="#6f6150" fill="#6f6150" >
    <g transform="translate(-2.1 -1.98)" stroke-width="0.31">
        <path d="M32,7.31v-2A26.86,26.86,0,0,1,42.43,7.44c-1.44,3.42.71-1.56-.82,1.9A27.12,27.12,0,0,0,32,7.31Z"
              fill="#f5efe7"/>
        <path d="M22.58,9.2c-1.43-3.42.59,1.46-.75-1.81A26.86,26.86,0,0,1,32.26,5.33c0,3.71,0-1.71,0,2.07A27.12,27.12,0,0,0,22.58,9.2Z"/>
        <path d="M14.6,14.55c-2.63-2.62,1.1,1.12-1.39-1.39a26.86,26.86,0,0,1,8.85-5.9c1.4,3.44-.61-1.6.76,1.92A27.12,27.12,0,0,0,14.6,14.55Z"
              fill="#f5efe7"/>
        <path d="M9.27,22.55c-3.43-1.41,1.45.61-1.81-.75A26.86,26.86,0,0,1,13.38,13c2.61,2.64-1.17-1.25,1.44,1.48A27.12,27.12,0,0,0,9.27,22.55Z"/>
        <path d="M7.41,32h-2A26.86,26.86,0,0,1,7.54,21.54C11,23,6,20.84,9.44,22.36A27.12,27.12,0,0,0,7.41,32Z"
              fill="#f5efe7"/>
        <path d="M9.3,41.39c-3.42,1.43,1.46-.59-1.81.75A26.86,26.86,0,0,1,5.43,31.71c3.71,0-1.71,0,2.07,0A27.12,27.12,0,0,0,9.3,41.39Z"/>
        <path d="M14.65,49.37C12,52,15.77,48.27,13.27,50.76a26.86,26.86,0,0,1-5.9-8.85c3.44-1.4-1.6.61,1.92-.76A27.12,27.12,0,0,0,14.65,49.37Z"
              fill="#f5efe7"/>
        <path d="M22.65,54.69c-1.41,3.43.61-1.45-.75,1.81a26.86,26.86,0,0,1-8.84-5.92c2.64-2.61-1.25,1.17,1.48-1.44A27.12,27.12,0,0,0,22.65,54.69Z"/>
        <path d="M32.07,56.55v2a26.86,26.86,0,0,1-10.43-2.09c1.44-3.42-.71,1.56.82-1.9A27.12,27.12,0,0,0,32.07,56.55Z"
              fill="#f5efe7"/>
        <path d="M41.49,54.67c1.43,3.42-.59-1.46.75,1.81A26.86,26.86,0,0,1,31.8,58.54c0-3.71,0,1.71,0-2.07A27.12,27.12,0,0,0,41.49,54.67Z"/>
        <path d="M49.47,49.32c2.63,2.62-1.1-1.12,1.39,1.39A26.86,26.86,0,0,1,42,56.6c-1.4-3.44.61,1.6-.76-1.92A27.12,27.12,0,0,0,49.47,49.32Z"
              fill="#f5efe7"/>
        <path d="M54.79,41.32c3.43,1.41-1.45-.61,1.81.75a26.86,26.86,0,0,1-5.92,8.84c-2.61-2.64,1.17,1.25-1.44-1.48A27.12,27.12,0,0,0,54.79,41.32Z"/>
        <path d="M56.65,31.9h2a26.86,26.86,0,0,1-2.09,10.43c-3.42-1.44,1.56.71-1.9-.82A27.12,27.12,0,0,0,56.65,31.9Z"
              fill="#f5efe7"/>
        <path d="M54.76,22.48c3.42-1.43-1.46.59,1.81-.75a26.86,26.86,0,0,1,2.06,10.44c-3.71,0,1.71,0-2.07,0A27.12,27.12,0,0,0,54.76,22.48Z"/>
        <path d="M49.42,14.5c2.62-2.63-1.12,1.1,1.39-1.39A26.86,26.86,0,0,1,56.7,22c-3.44,1.4,1.6-.61-1.92.76A27.12,27.12,0,0,0,49.42,14.5Z"
              fill="#f5efe7"/>
        <path d="M41.42,9.17c1.41-3.43-.61,1.45.75-1.81A26.86,26.86,0,0,1,51,13.28c-2.64,2.61,1.25-1.17-1.48,1.44A27.12,27.12,0,0,0,41.42,9.17Z"/>
    </g>
    <g transform="translate(-2.1 -1.98)" stroke-width="0.3">
        <g>
            <g>
                <path d="M14.72,14.51L32,31.83V28.28Z"/>
                <path d="M14.61,14.62L31.93,31.94H28.36Z" fill="#f5efe7"/>
            </g>
            <g>
                <path d="M49.46,14.62L32.14,31.94h3.54Z"/>
                <path d="M49.35,14.51L32,31.83V28.26Z" fill="#f5efe7"/>
            </g>
            <g>
                <path d="M49.35,49.36L32,32v3.54Z"/>
                <path d="M49.46,49.25L32.14,31.93h3.57Z" fill="#f5efe7"/>
            </g>
            <g>
                <path d="M14.61,49.25L31.93,31.93H28.38Z"/>
                <path d="M14.72,49.36L32,32v3.57Z" fill="#f5efe7"/>
            </g>
        </g>
        <g>
            <g>
                <path d="M32.13,2V31.84l3-3Z"/>
                <path d="M31.94,2V31.84l-3-3.1Z" fill="#f5efe7"/>
            </g>
            <g>
                <path d="M61.94,32H32.12l3,3Z"/>
                <path d="M61.94,31.84H32.12l3.1-3Z" fill="#f5efe7"/>
            </g>
            <g>
                <path d="M31.94,61.84V32l-3,3Z"/>
                <path d="M32.13,61.84V32l3,3.1Z" fill="#f5efe7"/>
            </g>
            <g>
                <path d="M2.12,31.84H31.94l-3-3Z"/>
                <path d="M2.12,32H31.94l-3.1,3Z" fill="#f5efe7"/>
            </g>
        </g>
    </g>
</svg>
