<svg xmlns="http://www.w3.org/2000/svg" width="350" height="350" viewBox="0 0 350 350">
    <title>t</title>
    <path d="M280.42,206.18l-32.49-15,0.8-6.05L354,179l-105.27-6.1-0.8-6.05,32.49-15-35.64,3.23-2.34-5.64,27.49-22.92-33.59,12.35L232.62,134,278,80l-54,45.37-4.84-3.72L231.5,88.07l-22.92,27.49-5.64-2.34,3.23-35.64-15,32.49-6.05-.8L179,4l-6.1,105.27-6.05.8-15-32.49,3.23,35.64-5.64,2.34L126.5,88.07l12.35,33.59L134,125.38,80,80l45.37,54-3.72,4.84L88.07,126.5l27.49,22.92-2.34,5.64-35.64-3.23,32.49,15-0.8,6.05L4,179l105.27,6.1,0.8,6.05-32.49,15,35.64-3.23,2.34,5.64L88.07,231.5l33.59-12.35,3.72,4.84L80,278l54-45.37,4.84,3.72L126.5,269.93l22.92-27.49,5.64,2.34-3.23,35.64,15-32.49,6.05,0.8L179,354l6.1-105.27,6.05-.8,15,32.49-3.23-35.64,5.64-2.34,22.92,27.49-12.35-33.59,4.84-3.72L278,278l-45.37-54,3.72-4.84,33.59,12.35-27.49-22.92,2.34-5.64ZM179,240.25A61.25,61.25,0,1,1,240.25,179,61.25,61.25,0,0,1,179,240.25Z" transform="translate(-4 -4)" fill="#616454" />
</svg>
