<svg height="300" width="300" xmlns="http://www.w3.org/2000/svg" viewBox="0 0 32 32">
    <path fill="$darkYellow" fill-opacity="0.6" d="M5.233 3.47l10.06 10.06-1.29 1.291-6.94-6.93C5.891 6.72 5.382 5.109 5.233 3.47zm21.534 0c-.149 1.639-.657 3.249-1.83 4.422L11.315 21.51a4.306 4.306 0 00-1.289-1.293l6.207-6.21a.5.5 0 00.245-.245L26.767 3.47zm-8.766 12.767l3.978 3.979a4.31 4.31 0 00-1.294 1.289l-3.979-3.973 1.295-1.295zM5.706 20.528h2.016a3.275 3.275 0 013.277 3.285v2.008l-5.293-5.293zm18.572 0h2.024L21 25.821v-2.008a3.275 3.275 0 013.277-3.285zm.723 2.706l3.559 3.517c.281.279.443.66.443 1.057v.722h-.723c-.396 0-.777-.16-1.056-.441l-3.518-3.56 1.295-1.295zm-18.004.001l1.295 1.295-3.516 3.559c-.279.282-.66.441-1.056.441h-.723v-.722c0-.397.161-.778.443-1.057l3.557-3.516z"/>
</svg>
