<svg xmlns="http://www.w3.org/2000/svg" height="300" width="300" viewBox="0 0 512 512">
    <path fill="$darkYellow" fill-opacity=".7" d="M438 411.3l-37.6-37.6c.1-.2.1-.2.1-.4 9.7-20.8 6.2-46.3-11-63.5L363 336.3l-80.5-80.5 96.6-96.6c24-24 37.5-56.6 37.5-90.5L256 229.3 95.4 68.7c0 34 13.5 66.5 37.5 90.5l96.6 96.6-80.5 80.5-26.5-26.5c-17.2 17.2-20.7 42.7-11 63.5.1.2.1.2.1.4L74 411.3c-7.3 7.3-7.3 19.2 0 26.5 7.3 7.3 19.2 7.3 26.5 0l37.6-37.6c.2.1.2.1.4.1 20.8 9.7 46.3 6.2 63.5-11l-26.5-26.5 80.5-80.5 80.5 80.5-26.5 26.6c17.2 17.2 42.7 20.7 63.5 11 .1-.1.2-.1.4-.1l37.6 37.6c7.3 7.3 19.2 7.3 26.5 0 7.3-7.4 7.3-19.3 0-26.6z"/>
</svg>
