<svg id="i-cannon" viewBox="0 0 512 512" fill="currentColor" xmlns="http://www.w3.org/2000/svg">
    <path transform="scale(-1,1) translate(-512,0)" d="M511.595,245.167l-36.32-158.394c-1.247-5.441-5.243-9.837-10.542-11.598c-5.297-1.761-11.129-0.629-15.387,2.983    l-33.876,28.754l-300.313,43.021c-27.912,3.811-53.109,19.288-69.128,42.461c-12.957,18.743-19.078,41.323-17.615,63.802    l-15.996,3.667c-8.606,1.974-13.983,10.549-12.009,19.156c1.698,7.404,8.282,12.418,15.568,12.418    c1.183,0,2.385-0.132,3.587-0.408l15.996-3.667c8.476,20.869,23.825,38.526,43.653,49.753c0.86,0.487,1.728,0.956,2.599,1.415    c13.267,56.731,64.269,99.111,124.985,99.111c70.771,0,128.347-57.577,128.347-128.348c0-6.609-0.503-13.103-1.471-19.445    l115.318-36.751l43.02,11.122c5.404,1.399,11.147-0.126,15.148-4.019C511.161,256.307,512.842,250.609,511.595,245.167z     M206.798,405.667c-53.141,0-96.374-43.233-96.374-96.374c0-53.141,43.233-96.373,96.374-96.373    c53.141,0,96.373,43.232,96.373,96.373C303.171,362.434,259.939,405.667,206.798,405.667z M324.909,259.083    c-19.581-45.89-65.15-78.136-118.112-78.136c-66.596,0-121.503,50.987-127.749,115.974c-8.412-8.789-14.335-19.707-17.154-31.997    c0,0,0-0.001,0-0.002s0-0.001,0-0.001c-4.357-19.005-0.651-38.305,10.436-54.344c11.087-16.039,27.833-26.325,47.255-28.977    l277.201-39.709l20.147,87.865L324.909,259.083z M452.529,220.987c-1.61-0.417-3.267-0.567-4.91-0.474l-19.187-83.676    c1.521-0.632,2.946-1.49,4.214-2.565l17.342-14.719l24.563,107.127L452.529,220.987z"/>
</svg>
