<svg id="i-sailing" viewBox="0 0 900 900" fill="currentColor" xmlns="http://www.w3.org/2000/svg">
    <g transform="translate(-100.000000,511.000000) scale(0.100000,-0.100000)">
        <path d="M5007.5,4402.6C5238.6,3344,5354.2,2635.3,5433.3,1820c51.7-547.5,51.7-2354.4,0-2859.4c-48.7-465.4-164.3-1162-246.4-1472.3l-57.8-231.2l173.4,139.9c1079.9,870,2226.7,1326.3,3355.2,1332.4l416.7,3.1l18.2,246.4c12.2,136.9,6.1,438-12.2,666.2c-194.7,2324-1444.9,3957.5-3592.5,4684.5c-158.2,54.7-334.6,109.5-392.4,121.7C4998.3,4472.6,4995.3,4469.5,5007.5,4402.6z"/>
        <path d="M4578.5,2784.3c-602.3-1843.4-1584.8-3659.4-2689-4973.5c-115.6-136.9-206.9-255.5-200.8-261.6c21.3-21.3,681.4-139.9,939.9-170.3c632.7-76,1514.9-21.3,1925.5,118.6c155.1,54.8,158.2,57.8,194.7,219c66.9,282.9,188.6,1180.3,225.1,1648.7c51.7,666.2,18.3,2129.3-60.8,2716.4c-57.8,431.9-173.4,1073.8-194.7,1095.1C4715.4,3182.8,4651.6,3006.4,4578.5,2784.3z"/>
    </g>
</svg>
