<svg xmlns="http://www.w3.org/2000/svg" width="1187.2" height="624.5" viewBox="0 0 1187.2 624.5">
        <rect y="499.6" width="1187.2" height="41.63" style="fill: #bf0a30"/>
        <rect y="416.33" width="1187.2" height="41.63" style="fill: #bf0a30"/>
        <rect y="333.07" width="1187.2" height="41.63" style="fill: #bf0a30"/>
        <rect y="249.8" width="1187.2" height="41.63" style="fill: #bf0a30"/>
        <rect y="166.53" width="1187.2" height="41.63" style="fill: #bf0a30"/>
        <rect y="83.27" width="1187.2" height="41.63" style="fill: #bf0a30"/>
        <rect y="582.87" width="1187.2" height="41.63" style="fill: #bf0a30"/>
        <rect width="1187.2" height="41.63" style="fill: #bf0a30"/>
        <rect y="541.23" width="1187.2" height="41.63" style="fill: #fff"/>
        <rect y="457.97" width="1187.2" height="41.63" style="fill: #fff"/>
        <rect y="374.7" width="1187.2" height="41.63" style="fill: #fff"/>
        <rect y="291.43" width="1187.2" height="41.63" style="fill: #fff"/>
        <rect y="208.17" width="1187.2" height="41.63" style="fill: #fff"/>
        <rect y="124.9" width="1187.2" height="41.63" style="fill: #fff"/>
        <rect y="41.63" width="1187.2" height="41.63" style="fill: #fff"/>
        <rect width="333.07" height="333.07" style="fill: #000067"/>
        <path d="M99.09,102.08L92.87,112.5l6.39,10.31-11.82-2.7-7.82,9.27L78.53,117.3,67.3,112.71l11.15-4.77,0.88-12.1,8,9.14Z" transform="translate(0 -0.5)" style="fill: #fff"/>
        <path d="M99.09,212.41l-6.22,10.42,6.39,10.31-11.82-2.7-7.82,9.27-1.09-12.09L67.3,223l11.15-4.77,0.88-12.1,8,9.14Z" transform="translate(0 -0.5)" style="fill: #fff"/>
        <path d="M210.09,102.08l-6.22,10.42,6.39,10.31-11.82-2.7-7.82,9.27-1.09-12.09-11.23-4.58,11.15-4.77,0.88-12.1,8,9.14Z" transform="translate(0 -0.5)" style="fill: #fff"/>
        <path d="M210.09,212.41l-6.22,10.42,6.39,10.31-11.82-2.7-7.82,9.27-1.09-12.09L178.3,223l11.15-4.77,0.88-12.1,8,9.14Z" transform="translate(0 -0.5)" style="fill: #fff"/>
        <path d="M321.09,102.08l-6.22,10.42,6.39,10.31-11.82-2.7-7.82,9.27-1.09-12.09-11.23-4.58,11.15-4.77,0.88-12.1,8,9.14Z" transform="translate(0 -0.5)" style="fill: #fff"/>
        <path d="M321.09,212.41l-6.22,10.42,6.39,10.31-11.82-2.7-7.82,9.27-1.09-12.09L289.3,223l11.15-4.77,0.88-12.1,8,9.14Z" transform="translate(0 -0.5)" style="fill: #fff"/>
        <path d="M12,67.09L18.2,56.67,11.8,46.36l11.82,2.7,7.82-9.27,1.09,12.09,11.23,4.58L32.61,61.22l-0.88,12.1-8-9.14Z" transform="translate(0 -0.5)" style="fill: #fff"/>
        <path d="M12,177.41L18.2,167,11.8,156.69l11.82,2.7,7.82-9.27,1.09,12.09,11.23,4.58-11.15,4.77-0.88,12.1-8-9.14Z" transform="translate(0 -0.5)" style="fill: #fff"/>
        <path d="M12,289.23l6.22-10.42L11.8,268.5l11.82,2.7,7.82-9.27L32.54,274l11.23,4.58-11.15,4.77-0.88,12.1-8-9.14Z" transform="translate(0 -0.5)" style="fill: #fff"/>
        <path d="M123,66.94l6.22-10.42L122.8,46.21l11.82,2.7,7.82-9.27,1.09,12.09,11.23,4.58-11.15,4.77-0.88,12.1-8-9.14Z" transform="translate(0 -0.5)" style="fill: #fff"/>
        <path d="M123,177.26l6.22-10.42-6.39-10.31,11.82,2.7,7.82-9.27,1.09,12.09,11.23,4.58-11.15,4.77-0.88,12.1-8-9.14Z" transform="translate(0 -0.5)" style="fill: #fff"/>
        <path d="M123,289.08l6.22-10.42-6.39-10.31,11.82,2.7,7.82-9.27,1.09,12.09,11.23,4.58-11.15,4.77-0.88,12.1-8-9.14Z" transform="translate(0 -0.5)" style="fill: #fff"/>
        <path d="M234,65.9l6.22-10.42L233.8,45.17l11.82,2.7,7.82-9.27,1.09,12.09,11.23,4.58L254.61,60l-0.88,12.1-8-9.14Z" transform="translate(0 -0.5)" style="fill: #fff"/>
        <path d="M234,176.22l6.22-10.42L233.8,155.5l11.82,2.7,7.82-9.27L254.54,161l11.23,4.58-11.15,4.77-0.88,12.1-8-9.14Z" transform="translate(0 -0.5)" style="fill: #fff"/>
        <path d="M234,288l6.22-10.42-6.39-10.31,11.82,2.7,7.82-9.27,1.09,12.09,11.23,4.58-11.15,4.77-0.88,12.1-8-9.14Z" transform="translate(0 -0.5)" style="fill: #fff"/>
</svg>
