<svg xmlns="http://www.w3.org/2000/svg" viewBox="0 0 242.67 242.67"><g fill="#9da188"><path d="M149.09 124.98c-.84-1.27.24-2.44.24-3.65s-1.08-2.38-.24-3.65c3-4.55 44.68-14.49 44.36-15.67s-45 11.61-46.25 8.61S186.6 85.06 185.99 84s-37.1 21.38-42.45 20.33c-1.49-.31-1.55-1.89-2.41-2.75s-2.45-.92-2.75-2.41c-1.1-5.34 21.34-41.84 20.29-42.45s-23.62 40-26.62 38.79 9.79-45.94 8.61-46.25-11.12 41.36-15.67 44.36c-1.27.84-2.44-.24-3.65-.24s-2.38 1.08-3.65.24c-4.55-3-14.49-44.68-15.67-44.36s11.61 45 8.61 46.25-25.56-39.4-26.62-38.79 21.38 37.11 20.29 42.45c-.31 1.49-1.89 1.55-2.75 2.41s-.92 2.45-2.41 2.75c-5.34 1.1-41.84-21.34-42.45-20.29s40 23.62 38.79 26.62-45.94-9.79-46.25-8.61 41.36 11.12 44.36 15.67c.84 1.27-.24 2.44-.24 3.65s1.08 2.38.24 3.65c-3 4.55-44.68 14.49-44.36 15.67s45-11.61 46.25-8.61-39.4 25.56-38.79 26.62 37.11-21.38 42.45-20.29c1.49.31 1.55 1.89 2.41 2.75s2.45.92 2.75 2.41c1.1 5.34-21.34 41.84-20.29 42.45s23.62-40 26.62-38.79-9.79 45.94-8.61 46.25 11.12-41.36 15.67-44.36c1.27-.84 2.44.24 3.65.24s2.38-1.08 3.65-.24c4.55 3 14.49 44.68 15.67 44.36s-11.61-45-8.61-46.25 25.56 39.4 26.62 38.79-21.39-37.13-20.34-42.48c.31-1.49 1.89-1.55 2.75-2.41s.92-2.45 2.41-2.75c5.34-1.1 41.84 21.34 42.45 20.29s-40-23.62-38.79-26.62 45.94 9.79 46.25 8.61-41.31-11.12-44.31-15.68zm-27.76 21.55a25.2 25.2 0 1 1 25.2-25.2 25.2 25.2 0 0 1-25.2 25.2z"/><path d="M145.58 135.33c-.22-1.42 1.15-2.16 1.62-3.28a28 28 0 0 0 0-21.43c-.47-1.13-1.84-1.86-1.62-3.28.56-3.63 10.47-10.16 16.48-17.25 8.49-10 30.15-36.47 28.57-38s-28 20.08-38 28.57c-7.09 6-13.62 15.92-17.25 16.48-1.42.22-2.16-1.15-3.28-1.62a28 28 0 0 0-21.43 0c-1.13.47-1.86 1.84-3.28 1.62-3.63-.56-10.16-10.47-17.25-16.48-10-8.49-36.47-30.15-38-28.57s20.08 28 28.57 38c6 7.09 15.92 13.62 16.48 17.25.22 1.42-1.15 2.16-1.62 3.28a28 28 0 0 0 0 21.43c.47 1.13 1.84 1.86 1.62 3.28-.56 3.63-10.47 10.16-16.48 17.25-8.49 10-30.15 36.47-28.57 38s28-20.08 38-28.57c7.09-6 13.62-15.92 17.25-16.48 1.42-.22 2.16 1.15 3.28 1.62a28 28 0 0 0 21.43 0c1.13-.47 1.86-1.84 3.28-1.62 3.63.56 10.16 10.47 17.25 16.48 10 8.49 36.47 30.15 38 28.57s-20.08-28-28.57-38c-6.02-7.09-15.93-13.62-16.48-17.25zm-24.25 11.2a25.2 25.2 0 1 1 25.2-25.2 25.2 25.2 0 0 1-25.2 25.2z"/><path d="M172.22 114.63c-10-.59-20.89 1.62-23.85-.55-1.16-.85-.71-2.34-1.18-3.47a28 28 0 0 0-15.15-15.15c-1.13-.47-2.62 0-3.47-1.18-2.17-3 0-13.81-.55-23.85-1-17.29-4.47-70.44-6.7-70.44s-5.68 53.15-6.7 70.44c-.59 10 1.62 20.89-.55 23.85-.85 1.16-2.34.71-3.47 1.18a28 28 0 0 0-15.15 15.15c-.47 1.13 0 2.62-1.18 3.47-3 2.17-13.81 0-23.85.55-17.29 1-70.44 4.47-70.44 6.7s53.15 5.68 70.44 6.7c10 .59 20.89-1.62 23.85.55 1.16.85.71 2.34 1.18 3.47a28 28 0 0 0 15.15 15.15c1.13.47 2.62 0 3.47 1.18 2.17 3 0 13.81.55 23.85 1 17.29 4.47 70.44 6.7 70.44s5.68-53.15 6.7-70.44c.59-10-1.62-20.89.55-23.85.85-1.16 2.34-.71 3.47-1.18a28 28 0 0 0 15.15-15.15c.47-1.13 0-2.62 1.18-3.47 3-2.17 13.81 0 23.85-.55 17.29-1 70.44-4.47 70.44-6.7s-53.15-5.68-70.44-6.7zm-50.89 31.9a25.2 25.2 0 1 1 25.2-25.2 25.2 25.2 0 0 1-25.2 25.2z"/></g></svg>