<svg xmlns="http://www.w3.org/2000/svg" viewBox="0 0 350 350"><path d="M276.42 202.18l-32.49-15 .8-6.05L350 175l-105.27-6.1-.8-6.05 32.49-15-35.64 3.23-2.34-5.64 27.49-22.92-33.59 12.35-3.72-4.87L274 76l-54 45.37-4.84-3.72 12.34-33.58-22.92 27.49-5.64-2.34 3.23-35.64-15 32.49-6.05-.8L175 0l-6.1 105.27-6.05.8-15-32.49 3.23 35.64-5.64 2.34-22.94-27.49 12.35 33.59-4.85 3.72L76 76l45.37 54-3.72 4.84-33.58-12.34 27.49 22.92-2.34 5.64-35.64-3.23 32.49 15-.8 6.05L0 175l105.27 6.1.8 6.05-32.49 15 35.64-3.23 2.34 5.64-27.49 22.94 33.59-12.35 3.72 4.84L76 274l54-45.37 4.84 3.72-12.34 33.58 22.92-27.49 5.64 2.34-3.23 35.64 15-32.49 6.05.8L175 350l6.1-105.27 6.05-.8 15 32.49-3.23-35.64 5.64-2.34 22.92 27.49-12.35-33.59 4.84-3.72L274 274l-45.37-54 3.72-4.84 33.59 12.35-27.49-22.92 2.34-5.64zM175 236.25A61.25 61.25 0 1 1 236.25 175 61.25 61.25 0 0 1 175 236.25z" fill="#616454"/></svg>