<svg xmlns="http://www.w3.org/2000/svg" viewBox="0 0 59.85 59.87" stroke="#6f6150" fill="#6f6150"><g stroke-width=".31"><path d="M29.9 5.33v-2a26.86 26.86 0 0 1 10.43 2.13c-1.44 3.42.71-1.56-.82 1.9a27.12 27.12 0 0 0-9.61-2.03z" fill="#f5efe7"/><path d="M20.48 7.22c-1.43-3.42.59 1.46-.75-1.81a26.86 26.86 0 0 1 10.43-2.06v2.07a27.12 27.12 0 0 0-9.68 1.8z"/><path d="M12.5 12.57c-2.63-2.62 1.1 1.12-1.39-1.39a26.86 26.86 0 0 1 8.85-5.9c1.4 3.44-.61-1.6.76 1.92a27.12 27.12 0 0 0-8.22 5.37z" fill="#f5efe7"/><path d="M7.17 20.57c-3.43-1.41 1.45.61-1.81-.75a26.86 26.86 0 0 1 5.92-8.8c2.61 2.64-1.17-1.25 1.44 1.48a27.12 27.12 0 0 0-5.55 8.07z"/><path d="M5.31 30.02h-2a26.86 26.86 0 0 1 2.13-10.46c3.46 1.46-1.54-.7 1.9.82a27.12 27.12 0 0 0-2.03 9.64z" fill="#f5efe7"/><path d="M7.2 39.41c-3.42 1.43 1.46-.59-1.81.75a26.86 26.86 0 0 1-2.06-10.43H5.4a27.12 27.12 0 0 0 1.8 9.68z"/><path d="M12.55 47.39c-2.65 2.63 1.12-1.1-1.38 1.39a26.86 26.86 0 0 1-5.9-8.85c3.44-1.4-1.6.61 1.92-.76a27.12 27.12 0 0 0 5.36 8.22z" fill="#f5efe7"/><path d="M20.55 52.71c-1.41 3.43.61-1.45-.75 1.81a26.86 26.86 0 0 1-8.84-5.92c2.64-2.61-1.25 1.17 1.48-1.44a27.12 27.12 0 0 0 8.11 5.55z"/><path d="M29.97 54.57v2a26.86 26.86 0 0 1-10.43-2.09c1.44-3.42-.71 1.56.82-1.9a27.12 27.12 0 0 0 9.61 1.99z" fill="#f5efe7"/><path d="M39.39 52.69c1.43 3.42-.59-1.46.75 1.81a26.86 26.86 0 0 1-10.44 2.06v-2.07a27.12 27.12 0 0 0 9.69-1.8z"/><path d="M47.37 47.34c2.63 2.62-1.1-1.12 1.39 1.39a26.86 26.86 0 0 1-8.86 5.89c-1.4-3.44.61 1.6-.76-1.92a27.12 27.12 0 0 0 8.23-5.36z" fill="#f5efe7"/><path d="M52.69 39.34c3.43 1.41-1.45-.61 1.81.75a26.86 26.86 0 0 1-5.92 8.84c-2.61-2.64 1.17 1.25-1.44-1.48a27.12 27.12 0 0 0 5.55-8.11z"/><path d="M54.55 29.92h2a26.86 26.86 0 0 1-2.09 10.43c-3.42-1.44 1.56.71-1.9-.82a27.12 27.12 0 0 0 1.99-9.61z" fill="#f5efe7"/><path d="M52.66 20.5c3.42-1.43-1.46.59 1.81-.75a26.86 26.86 0 0 1 2.06 10.44h-2.07a27.12 27.12 0 0 0-1.8-9.69z"/><path d="M47.32 12.52c2.62-2.63-1.12 1.1 1.39-1.39a26.86 26.86 0 0 1 5.89 8.89c-3.44 1.4 1.6-.61-1.92.76a27.12 27.12 0 0 0-5.36-8.26z" fill="#f5efe7"/><path d="M39.32 7.19c1.41-3.43-.61 1.45.75-1.81a26.86 26.86 0 0 1 8.83 5.92c-2.64 2.61 1.25-1.17-1.48 1.44a27.12 27.12 0 0 0-8.1-5.55z"/></g><g stroke-width=".3"><path d="M12.62 12.53L29.9 29.85V26.3z"/><path d="M12.51 12.64l17.32 17.32h-3.57z" fill="#f5efe7"/><path d="M47.36 12.64L30.04 29.96h3.54z"/><path d="M47.25 12.53L29.9 29.85v-3.57z" fill="#f5efe7"/><path d="M47.25 47.38L29.9 30.02v3.54z"/><path d="M47.36 47.27L30.04 29.95h3.57z" fill="#f5efe7"/><path d="M12.51 47.27l17.32-17.32h-3.55z"/><path d="M12.62 47.38L29.9 30.02v3.57z" fill="#f5efe7"/><path d="M30.03.02v29.84l3-3z"/><path d="M29.84.02v29.84l-3-3.1z" fill="#f5efe7"/><path d="M59.84 30.02H30.02l3 3z"/><path d="M59.84 29.86H30.02l3.1-3z" fill="#f5efe7"/><path d="M29.84 59.86V30.02l-3 3z"/><path d="M30.03 59.86V30.02l3 3.1z" fill="#f5efe7"/><path d="M.02 29.86h29.82l-3-3z"/><path d="M.02 30.02h29.82l-3.1 3z" fill="#f5efe7"/></g></svg>