<svg xmlns="http://www.w3.org/2000/svg" viewBox="0 0 1187.2 624.5"><path fill="#bf0a30" d="M0 499.6h1187.2v41.63H0zm0-83.27h1187.2v41.63H0zm0-83.26h1187.2v41.63H0zm0-83.27h1187.2v41.63H0zm0-83.27h1187.2v41.63H0zm0-83.26h1187.2v41.63H0zm0 499.6h1187.2v41.63H0zM0 0h1187.2v41.63H0z"/><path fill="#fff" d="M0 541.23h1187.2v41.63H0zm0-83.26h1187.2v41.63H0zm0-83.27h1187.2v41.63H0zm0-83.27h1187.2v41.63H0zm0-83.26h1187.2v41.63H0zm0-83.27h1187.2v41.63H0zm0-83.27h1187.2v41.63H0z"/><path fill="#000067" d="M0 0h333.07v333.07H0z"/><path d="M99.09 101.58L92.87 112l6.39 10.31-11.82-2.7-7.82 9.27-1.09-12.08-11.23-4.59 11.15-4.77.88-12.1 8 9.14zm0 110.33l-6.22 10.42 6.39 10.31-11.82-2.7-7.82 9.27-1.09-12.09-11.23-4.62 11.15-4.77.88-12.1 8 9.14zm111-110.33L203.87 112l6.39 10.31-11.82-2.7-7.82 9.27-1.09-12.09-11.23-4.58 11.15-4.77.88-12.1 8 9.14zm0 110.33l-6.22 10.42 6.39 10.31-11.82-2.7-7.82 9.27-1.09-12.09-11.23-4.62 11.15-4.77.88-12.1 8 9.14zm111-110.33L314.87 112l6.39 10.31-11.82-2.7-7.82 9.27-1.09-12.09-11.23-4.58 11.15-4.77.88-12.1 8 9.14zm0 110.33l-6.22 10.42 6.39 10.31-11.82-2.7-7.82 9.27-1.09-12.09-11.23-4.62 11.15-4.77.88-12.1 8 9.14zM12 66.59l6.2-10.42-6.4-10.31 11.82 2.7 7.82-9.27 1.09 12.09 11.23 4.58-11.15 4.76-.88 12.1-8-9.14zm0 110.32l6.2-10.41-6.4-10.31 11.82 2.7 7.82-9.27 1.09 12.09 11.23 4.58-11.15 4.77-.88 12.1-8-9.14zm0 111.82l6.22-10.42L11.8 268l11.82 2.7 7.82-9.27 1.1 12.07 11.23 4.58-11.15 4.77-.88 12.1-8-9.14zM123 66.44l6.22-10.42-6.42-10.31 11.82 2.7 7.82-9.27 1.09 12.09 11.23 4.58-11.15 4.77-.88 12.1-8-9.14zm0 110.32l6.22-10.42-6.39-10.31 11.82 2.7 7.82-9.27 1.09 12.09 11.23 4.58-11.15 4.77-.88 12.1-8-9.14zm0 111.82l6.22-10.42-6.39-10.31 11.82 2.7 7.82-9.27 1.09 12.09 11.23 4.58-11.15 4.77-.88 12.1-8-9.14zM234 65.4l6.22-10.42-6.42-10.31 11.82 2.7 7.82-9.27 1.09 12.09 11.23 4.58-11.15 4.73-.88 12.1-8-9.14zm0 110.32l6.22-10.42-6.42-10.3 11.82 2.7 7.82-9.27 1.1 12.07 11.23 4.58-11.15 4.77-.88 12.1-8-9.14zm0 111.78l6.22-10.42-6.39-10.31 11.82 2.7 7.82-9.27 1.09 12.09 11.23 4.58-11.15 4.77-.88 12.1-8-9.14z" fill="#fff"/></svg>