<svg xmlns="http://www.w3.org/2000/svg" viewBox="0 0 640 480"><path d="M0 0h640v480H0z"/><path d="M256.68 174.49c3-9 0-25 1-35 1-6 5-12 8-18 2-6 5-14 12-16-2 6-3 6-5 11l-3 11c-2 5-5 7-6 12-2 7-1 24-1 32 0 2 0 5-2 7-3 4-12 1-11 11 0 1 0 3 1 4 4 9 20 12 28 16 8 5 6 10 14 15 8 6 29 6 39 5 3-1 8-1 11-3 8-3 9-11 17-16 6-3 19-5 25-14a7.58 7.58 0 0 0 2-4c3-11-10-7-13-14-2-5 1-21 2-26l3 3v9l1 10c11-2 10-15 11-24 2-24 2-39-15-58-10-10-23-18-37-20h-9l-7-1-8 1c-13 1-22 1-33 7-8 4-13 9-19 16-15 16-18 36-15 57 1 8 3 17 9 22zm33-30c14-1 24 9 19 23-4 9-13 16-23 18-9 1-13-5-13-13 0-13 2-24 17-28zm56 0c12 0 18 10 19 21 0 3 1 6 1 8-1 7-8 12-15 13-11 0-24-17-23-27 2-9 10-13 18-15zm-18 61l-11-2-9 3c-1-7 2-17 5-24 1-2 3-6 5-7 4-1 5 4 5 6 2 8 5 16 5 24z" fill="#fff"/><path d="M366.68 221.49c-3 1-7 1-10 3-10 7-5 24-14 35-4 5-13 7-20 7-13 0-29-1-35-14-5-9 2-18-9-29-2-1-5-4-7-4-3 0-2 4-2 6l1 20c0 15 4 15 11 24 4 6 7 12 14 15 9 3 19 3 28 2 7 0 11 1 18-3s19-20 21-28l1-14c2-10 3-8 3-20zm183-104c-15 21-31.27 38.79-49 60l-24 27c-20 19-70 56-93 71-13 9-27 16-41 22l-18.26 8.84c3 3 8.58 4.64 13.63 7 3 0 13.63-5.84 16.63-7.84l32-18c6-4 12-9 19-10-3 7-10 11-17 15l-19 11s-20 11.37-22.68 13.26c5.47 2.16 13.68 4.64 18.89 6.74 5 0 11.79-5 15.79-7a361.13 361.13 0 0 0 36-23l18-12a459.22 459.22 0 0 0 41-36c10-9 20-18 28-29 11-13 18-28 26-43 9-14 12-23 17-38 1-5 4-13 2-18z" fill="#fff"/><path d="M90.68 112.49c-3 11 1 24 5 34 9 24 24 45 39 65 9 13 24 29 35 40l12 10 26 23c21 16 60 40 84 51l32 14 13 5a241.71 241.71 0 0 0 46 13c9 2 19 5 28 5-3-11-9-10-18-13l-33-13c-46-19-97-38-133-74 7 0 12 6 17 10 7 5 16 11 24 16 22 13 72 36 97 45 10 4 27 11 37 11 8 1 19-4 25-8-4-4-8-3-14-4l-31-9a369.65 369.65 0 0 1-78-30l-14-6-19-12-23-15-24-19-41-32-38-39-19-22-20-22-15-24z" fill="#fff"/><path d="M411.68 359.49c2 4 6 10 6 15 0 11-13 21-23 20-4-1-13-6-16 0-1 2-1 4 0 5 0 4 5 6 9 8 11 3 23-1 32-7a30.22 30.22 0 0 0 14-19l2-13c1-4 5-5 10-12 6-8 12-22 20-28a30 30 0 0 1 10-4c-2-3-4-5-6-8-2-1-4-3-6-3a11.83 11.83 0 0 0-10 1c-14 7-11 20-19 30-6 8-13 12-23 15z" fill="#fff"/><path d="M443.68 372.49c7 3 13 2 20 2l15 1c7 0 9-4 12-10 1-2 2-6 0-8s-6-2-9-2l-17 1c-3 0-8 0-11 1-5 3-9 10-10 15zm54 14c-5-2-8-4-11-8-1 1-2 1-3 2-1 5 12 17 14 6z" fill="#fff"/><path d="M490.68 352.49l8 5c-2 4-7 12-6 17 1 10 15 10 21 4 7-8 7-20-3-26-6-3-13-2-20 0zm-359 28l1 1c8-2 13-5 14-13-6 1-12 7-15 12zm7-37a16.89 16.89 0 0 0-10-3 27.69 27.69 0 0 0-9 1c-10 4-11 20-3 27 4 4 14 6 18 1 4-4 3-9 1-14-1-3-3-7-1-9 1-2 3-2 4-3z" fill="#fff"/><path d="M137.68 347.49c1 3 6 15 8 17 3 2 6 2 9 2l18-1h13c0-3 0-6-1-8-3-8-14-12-22-12l-9 1c-6 0-11-1-16 1z" fill="#fff"/><path d="M156.68 315.49c19 5 19 21 27 32 3 4 11 10 12 14 1 3 0 4 1 11a37.65 37.65 0 0 0 16 23c9 6 17 10 28 7 6-2 12-6 9-13s-14 0-21-2c-7-3-15-13-15-21l4-14c-11-4-24-13-29-24-3-7-3-17-8-22-9-7-21-1-24 9z" fill="#fff"/><path d="M204.68 338.49c3 4 5 5 9 7 14 8 23 2 37-1l29-9c-3.84-2.58-12.42-8-16-10l-19 5zm14 29c26 0 50-8 75-14 0 0 11-5.21 14.68-5.21-3.47-2.53-17.62-7.64-19.84-9.63-3 .89-14.84 4.84-18.84 5.84l-25 7-12 3c-7 3-12 4-14 13zm77-115c0 2.5.25 5.54 1.25 7s4.76 1.64 5.75 1c.81-.82-.75-4.75-1.62-5.87s-2.38-1.65-5.38-2.13zm8 1l1 5a7.58 7.58 0 0 0 2 4c4 2 6-8 3-9-2-1-4 0-6 0zm12 1a5.87 5.87 0 0 0-2 7.6c1.13 1.88 3.46 1.9 5 1.4 1-.5 2.5-3 2.63-5.25s-1.13-4.27-5.63-3.75zm-11-13c2.7 1.4 7.17-.09 7.17-.09l-.17-5.91c-1-4-4-5-6-3-1 2-1 7-1 9zm15-10c-1 0-4.13-.52-5.13.48-2 2-2.87 8.52.13 10.52 1.87.48 5 .91 6-3.09v-2.91a13.49 13.49 0 0 0-1-5zm10 32c.91.39 2-1 3-2 7-7-7.56-12.61-5-2 0 0 .96 3.83 2 4zm-28.26-33c-1-.35-2.74 0-3.74 0-7.78 3.52 2 17 5 8v-3s-.56-4.65-1.26-5zm22.26 1s-1.7 10.13-1 11c1.31.7 5.34.52 6.83-.52 0-3 .18-6.5-.42-8.33s-1.91-1.64-5.41-2.14zm9.57-1.17l-.56 5.17c0 3 .65 8.83 4.65 5.83.5-.5 1.85-6.45 1.3-9.16-1.04-1.46-2.92-1.6-5.39-1.84z" fill="#fff"/><path fill="#988b76" fill-opacity=".3" d="M0 0h640v480H0z"/></svg>