<svg xmlns="http://www.w3.org/2000/svg" viewBox="0 0 640 480"><path fill="#bf0a30" d="M0 384h640v32H0zm0-64h640v32H0zm0-64h640v32H0zm0-64h640v32H0zm0-64h640v32H0zm0-64h640v32H0zm0 384h640v32H0zM0 0h640v32H0z"/><path fill="#fff" d="M0 416h640v32H0zm0-64h640v32H0zm0-64h640v32H0zm0-64h640v32H0zm0-64h640v32H0zm0-64h640v32H0zm0-64h640v32H0z"/><path fill="#000067" d="M0 0h256v256H0z"/><path d="M76.41 69.32l-4 8.11 4.13 8-7.64-2.1-5.05 7.22-.7-9.41-7.28-3.54 7.21-3.71.57-9.42 5.17 7.12zm0 85.91l-4 8.11 4.13 8-7.64-2.1-5.05 7.22-.7-9.41-7.26-3.6 7.21-3.71.57-9.42 5.17 7.12zm71.74-85.91l-4 8.11 4.13 8-7.64-2.1-5.05 7.22-.7-9.41-7.26-3.57 7.21-3.71.57-9.42 5.17 7.12zm0 85.91l-4 8.11 4.13 8-7.64-2.1-5.05 7.22-.7-9.41-7.26-3.6 7.21-3.71.57-9.42 5.17 7.12zm71.74-85.91l-4 8.11 4.13 8-7.64-2.1-5.05 7.22-.7-9.41-7.26-3.57 7.21-3.71.57-9.42 5.17 7.12zm0 85.91l-4 8.11 4.13 8-7.64-2.1-5.05 7.22-.7-9.41-7.26-3.6 7.21-3.71.57-9.42 5.17 7.12zM20.13 42.08l4-8.11-4.14-8L27.64 28l5.05-7.22.7 9.41 7.26 3.57-7.21 3.71-.57 9.42-5.17-7.12zm0 85.92l4-8.11-4.14-8 7.64 2.1 5.05-7.22.7 9.41 7.26 3.57-7.21 3.71-.57 9.42-5.17-7.12zm0 87.05l4-8.11-4.15-8 7.64 2.1 5.05-7.22.71 9.4 7.26 3.57-7.21 3.71-.57 9.42-5.17-7.12zM91.87 42l4-8.11-4.15-8 7.64 2.1 5.05-7.22.7 9.41 7.26 3.57-7.21 3.71-.57 9.42-5.17-7.12zm0 85.86l4-8.11-4.13-8 7.64 2.1 5.05-7.22.7 9.41 7.26 3.57-7.21 3.71-.57 9.42-5.17-7.12zm0 87.07l4-8.11-4.13-8 7.64 2.1 5.05-7.22.7 9.41 7.26 3.57-7.21 3.71-.57 9.42-5.17-7.12zM163.6 41.15l4-8.11-4.15-8 7.64 2.1 5.05-7.22.7 9.41 7.26 3.57-7.21 3.68-.53 9.42-5.17-7.12zm0 85.9l4-8.11-4.15-8 7.64 2.1 5.05-7.22.71 9.4 7.26 3.57-7.21 3.71-.57 9.42-5.17-7.12zm0 87.04l4-8.11-4.13-8 7.64 2.1 5.05-7.22.7 9.41 7.26 3.57-7.21 3.71-.53 9.45-5.17-7.12z" fill="#fff"/><path fill="#c3baac" fill-opacity=".7" d="M0 0h640v480H0z"/></svg>